# xmcd CD database file
#
# Track frame offsets:
#	150
#	10262
#	22136
#	34120
#	45186
#	57820
#	71383
#	84953
#	97295
#	112688
#	123041
#	138986
#	153848
#
# Disc length: 2211 seconds
#
# Revision: 0
# Processed by: cddbd v1.5.1PL2 Copyright (c) Steve Scherf et al.
# Submitted via: CDex 1.51
#
DISCID=9408a10d
DTITLE=Various Artist - American Blues Vol.2
DYEAR=2001
DGENRE=Blues
TTITLE0=Messin' with the Kid/ Junior Wells
TTITLE1=Call My Job/Detroit Junior
TTITLE2=Crazy About the Entertainers
TTITLE3=Bowlegged woman, Knock-Kneed Man (part 1)/Bobby Rush
TTITLE4=Rough Dried Women/ Big Mac
TTITLE5=My Baby/ Lowell Fulson
TTITLE6=Sit and Cry/ Buddy Guy
TTITLE7=Swear to Tell the Truth/Earl Hooker
TTITLE8=Born with the Blues/ Memphis Slim
TTITLE9=Honky Tonky/Koko Taylor
TTITLE10=Spider in My Stew/Buster Benton
TTITLE11=I'm the Fixer/ Willie Mahon
TTITLE12=Left Over Blues/ Clarence Gatemouth Brown
EXTD=YEAR: 2001
EXTT0=
EXTT1=
EXTT2=
EXTT3=
EXTT4=
EXTT5=
EXTT6=
EXTT7=
EXTT8=
EXTT9=
EXTT10=
EXTT11=
EXTT12=
PLAYORDER=
